<svg xmlns="http://www.w3.org/2000/svg" xmlns:xlink="http://www.w3.org/1999/xlink" width="132.497" height="139.614" viewBox="0 0 132.497 139.614"><defs><style>.a,.e{fill:#fff;}.a{opacity:0;}.b{stroke:#fff;stroke-width:0.5px;}.c{fill:#f7f7f7;}.d{fill:rgba(0,0,0,0.7);}.f{fill:#f5f5f5;}.g{filter:url(#i);}.h{filter:url(#g);}.i{filter:url(#e);}.j{filter:url(#c);}.k{filter:url(#a);}</style><filter id="a" x="0" y="20.64" width="89.793" height="89.793" filterUnits="userSpaceOnUse"><feOffset dy="8" input="SourceAlpha"/><feGaussianBlur stdDeviation="12" result="b"/><feFlood flood-opacity="0.161"/><feComposite operator="in" in2="b"/><feComposite in="SourceGraphic"/></filter><filter id="c" x="42.703" y="49.821" width="89.793" height="89.793" filterUnits="userSpaceOnUse"><feOffset dy="8" input="SourceAlpha"/><feGaussianBlur stdDeviation="12" result="d"/><feFlood flood-opacity="0.161"/><feComposite operator="in" in2="d"/><feComposite in="SourceGraphic"/></filter><filter id="e" x="27" y="0" width="89.79" height="89.79" filterUnits="userSpaceOnUse"><feOffset dy="8" input="SourceAlpha"/><feGaussianBlur stdDeviation="12" result="f"/><feFlood flood-opacity="0.161"/><feComposite operator="in" in2="f"/><feComposite in="SourceGraphic"/></filter><filter id="g" x="20" y="21" width="89.79" height="89.79" filterUnits="userSpaceOnUse"><feOffset dy="8" input="SourceAlpha"/><feGaussianBlur stdDeviation="12" result="h"/><feFlood flood-opacity="0.161"/><feComposite operator="in" in2="h"/><feComposite in="SourceGraphic"/></filter><filter id="i" x="1.423" y="41.28" width="89.793" height="89.793" filterUnits="userSpaceOnUse"><feOffset dy="8" input="SourceAlpha"/><feGaussianBlur stdDeviation="12" result="j"/><feFlood flood-opacity="0.161"/><feComposite operator="in" in2="j"/><feComposite in="SourceGraphic"/></filter></defs><g transform="translate(-791 -2849.25)"><rect class="a" width="104" height="104" transform="translate(805 2864.25)"/><g transform="translate(827 2877.25)"><g transform="translate(0 0)"><g transform="translate(0 0)"><path class="b" d="M69.939,20H34.165A3.912,3.912,0,0,0,30.3,23.865v58.52a3.912,3.912,0,0,0,3.865,3.865H69.939A3.912,3.912,0,0,0,73.8,82.384V23.865A3.912,3.912,0,0,0,69.939,20ZM71.6,82.384a1.7,1.7,0,0,1-1.656,1.656H34.165a1.7,1.7,0,0,1-1.656-1.656V23.865a1.7,1.7,0,0,1,1.656-1.656H69.939A1.7,1.7,0,0,1,71.6,23.865ZM52.052,70.349a4.858,4.858,0,1,0,4.858,4.858A4.9,4.9,0,0,0,52.052,70.349Zm0,7.4A2.65,2.65,0,1,1,54.7,75.1,2.687,2.687,0,0,1,52.052,77.747Z" transform="translate(-21.515 -9.097)"/><g transform="translate(0 20.64)"><g class="k" transform="matrix(1, 0, 0, 1, -36, -48.64)"><circle class="c" cx="8.897" cy="8.897" r="8.897" transform="translate(36 48.64)"/></g><path class="d" d="M3.6,167.943a4.2,4.2,0,0,0,4.231-4.231q0-.1,0-.192a3.025,3.025,0,0,0,.742-.77,2.968,2.968,0,0,1-.854.234,1.492,1.492,0,0,0,.654-.823,2.981,2.981,0,0,1-.944.361,1.488,1.488,0,0,0-2.534,1.356,4.222,4.222,0,0,1-3.065-1.554,1.488,1.488,0,0,0,.46,1.985,1.477,1.477,0,0,1-.674-.186c0,.006,0,.012,0,.019A1.488,1.488,0,0,0,2.8,165.6a1.486,1.486,0,0,1-.672.025,1.489,1.489,0,0,0,1.389,1.033,2.984,2.984,0,0,1-1.847.637,3.017,3.017,0,0,1-.355-.021,4.209,4.209,0,0,0,2.279.668" transform="translate(3.842 -156.472)"/></g><g transform="translate(42.703 49.821)"><g class="j" transform="matrix(1, 0, 0, 1, -78.7, -77.82)"><circle class="e" cx="8.897" cy="8.897" r="8.897" transform="translate(78.7 77.82)"/></g><g transform="translate(5.053 5.219)"><path class="d" d="M6.026,313.161c.941,0,1.053,0,1.425.021a1.951,1.951,0,0,1,.655.121,1.167,1.167,0,0,1,.669.669,1.952,1.952,0,0,1,.121.655c.017.372.02.483.02,1.425s0,1.053-.02,1.425a1.952,1.952,0,0,1-.121.655,1.167,1.167,0,0,1-.669.669,1.947,1.947,0,0,1-.655.122c-.372.017-.483.02-1.425.02s-1.053,0-1.425-.02a1.947,1.947,0,0,1-.655-.122,1.167,1.167,0,0,1-.669-.669,1.95,1.95,0,0,1-.121-.655c-.017-.372-.02-.483-.02-1.425s0-1.053.02-1.425a1.95,1.95,0,0,1,.121-.655,1.167,1.167,0,0,1,.669-.669,1.951,1.951,0,0,1,.655-.121c.372-.017.483-.021,1.425-.021m0-.635c-.958,0-1.078,0-1.454.021a2.588,2.588,0,0,0-.856.164,1.8,1.8,0,0,0-1.031,1.031,2.588,2.588,0,0,0-.164.856c-.017.376-.021.5-.021,1.454s0,1.078.021,1.454a2.589,2.589,0,0,0,.164.856,1.8,1.8,0,0,0,1.031,1.031,2.586,2.586,0,0,0,.856.164c.376.017.5.021,1.454.021s1.078,0,1.454-.021a2.586,2.586,0,0,0,.856-.164,1.8,1.8,0,0,0,1.031-1.031,2.589,2.589,0,0,0,.164-.856c.017-.376.021-.5.021-1.454s0-1.078-.021-1.454a2.588,2.588,0,0,0-.164-.856,1.8,1.8,0,0,0-1.031-1.031,2.588,2.588,0,0,0-.856-.164c-.376-.017-.5-.021-1.454-.021" transform="translate(-2.5 -312.526)"/><path class="d" d="M24.987,333.2a1.811,1.811,0,1,0,1.811,1.811,1.811,1.811,0,0,0-1.811-1.811m0,2.986a1.175,1.175,0,1,1,1.175-1.175,1.175,1.175,0,0,1-1.175,1.175" transform="translate(-21.461 -331.486)"/><path class="d" d="M63.433,327.662a.423.423,0,1,1-.423-.423.423.423,0,0,1,.423.423" transform="translate(-57.602 -326.018)"/></g></g><g transform="translate(27.045 0)"><g class="i" transform="matrix(1, 0, 0, 1, -63.05, -28)"><circle class="c" cx="8.895" cy="8.895" r="8.895" transform="translate(63 28)"/></g><path class="d" d="M7.311,481.815a.935.935,0,0,0-.66-.66A22.309,22.309,0,0,0,3.733,481a22.309,22.309,0,0,0-2.917.156.935.935,0,0,0-.66.66,10.427,10.427,0,0,0,0,3.595.935.935,0,0,0,.66.66,22.321,22.321,0,0,0,2.917.156,22.321,22.321,0,0,0,2.917-.156.935.935,0,0,0,.66-.66,9.716,9.716,0,0,0,.156-1.8,9.714,9.714,0,0,0-.156-1.8m-4.324,2.917v-2.24l1.94,1.12Z" transform="translate(4.954 -474.999)"/></g><g transform="translate(19.928 20.64)"><g class="h" transform="matrix(1, 0, 0, 1, -55.93, -48.64)"><circle class="c" cx="8.895" cy="8.895" r="8.895" transform="translate(56 49)"/></g><path class="d" d="M20.6,778.556l.248-1.746H19.3v-1.133a.843.843,0,0,1,.913-.943h.706v-1.486a8.008,8.008,0,0,0-1.254-.118,2.061,2.061,0,0,0-2.115,2.35v1.331H16.128v1.746H17.55v4.22a5.259,5.259,0,0,0,1.75,0v-4.22Z" transform="translate(-10.056 -768.77)"/></g><g transform="translate(1.423 41.28)"><g class="g" transform="matrix(1, 0, 0, 1, -37.42, -69.28)"><circle class="f" cx="8.897" cy="8.897" r="8.897" transform="translate(37.42 69.28)"/></g><g transform="translate(5.29 5.386)"><path class="d" d="M34.607,655.971c.092-.1.168-.208.262-.3a1.439,1.439,0,0,1,1.035-.408,2.391,2.391,0,0,1,.651.079,1.272,1.272,0,0,1,.9.95,3.981,3.981,0,0,1,.12,1.088c0,.774,0,1.547,0,2.321,0,.072-.02.091-.091.091q-.6,0-1.2,0c-.07,0-.085-.021-.085-.087q0-1.1,0-2.208a1.983,1.983,0,0,0-.064-.548.616.616,0,0,0-.678-.48.741.741,0,0,0-.779.74,2.763,2.763,0,0,0-.021.345c0,.716,0,1.432,0,2.148,0,.071-.018.092-.091.092q-.6-.005-1.2,0c-.064,0-.083-.017-.083-.082q0-2.126,0-4.252c0-.07.023-.086.089-.086q.572,0,1.144,0c.07,0,.088.022.087.089,0,.169,0,.339,0,.508" transform="translate(-30.942 -653.176)"/><path class="d" d="M7.647,658.793c0,.7,0,1.4,0,2.1,0,.078-.019.1-.1.1-.4,0-.8,0-1.2,0-.064,0-.083-.016-.083-.081q0-2.13,0-4.259c0-.059.014-.08.077-.079.4,0,.808,0,1.213,0,.078,0,.088.029.088.1q0,1.06,0,2.121" transform="translate(-6.166 -654.378)"/><path class="d" d="M6.591,630.874a.8.8,0,1,1-.794-.792.8.8,0,0,1,.794.792" transform="translate(-5 -630.082)"/></g></g></g></g></g></g></svg>