<svg xmlns="http://www.w3.org/2000/svg" width="121.877" height="30.683" viewBox="0 0 121.877 30.683"><defs><style>.a{fill:#fff;}</style></defs><path class="a" d="M28.094,21.723a6.059,6.059,0,0,1,2.887-5.085A6.2,6.2,0,0,0,26.091,14c-2.056-.216-4.05,1.231-5.1,1.231-1.068,0-2.681-1.209-4.419-1.173A6.509,6.509,0,0,0,11.1,17.394c-2.369,4.1-.6,10.127,1.667,13.442,1.135,1.623,2.462,3.436,4.2,3.372,1.7-.07,2.333-1.083,4.383-1.083,2.032,0,2.627,1.083,4.4,1.042,1.824-.029,2.971-1.63,4.067-3.269a13.416,13.416,0,0,0,1.859-3.788,5.857,5.857,0,0,1-3.575-5.387" transform="translate(-9.972 -7.193)"/><path class="a" d="M22.77,13A5.969,5.969,0,0,0,24.136,8.72a6.074,6.074,0,0,0-3.929,2.033,5.675,5.675,0,0,0-1.4,4.116A5.019,5.019,0,0,0,22.77,13" transform="translate(-7.994 -8.373)"/><path class="a" d="M44.071,29.176h-5.8l-1.392,4.11H34.427l5.492-15.208H42.47l5.49,15.208h-2.5Zm-5.2-1.9h4.6L41.2,20.608h-.062Z" transform="translate(-4.477 -6.271)"/><path class="a" d="M57.076,27.009c0,3.445-1.846,5.659-4.627,5.659a3.758,3.758,0,0,1-3.489-1.94h-.053v5.492H46.632V21.464h2.2v1.844h.042a3.93,3.93,0,0,1,3.53-1.961c2.816,0,4.67,2.224,4.67,5.661m-2.339,0c0-2.245-1.16-3.721-2.932-3.721-1.738,0-2.909,1.506-2.909,3.721,0,2.234,1.171,3.73,2.909,3.73,1.772,0,2.932-1.465,2.932-3.73" transform="translate(-1.735 -5.536)"/><path class="a" d="M67.04,27.009c0,3.445-1.844,5.659-4.627,5.659a3.759,3.759,0,0,1-3.489-1.94h-.053v5.492H56.6V21.464h2.2v1.844h.042a3.932,3.932,0,0,1,3.531-1.961c2.814,0,4.669,2.224,4.669,5.661m-2.339,0c0-2.245-1.16-3.721-2.931-3.721-1.739,0-2.909,1.506-2.909,3.721,0,2.234,1.17,3.73,2.909,3.73,1.771,0,2.931-1.465,2.931-3.73" transform="translate(0.504 -5.536)"/><path class="a" d="M72.138,29.1c.169,1.508,1.634,2.5,3.636,2.5,1.917,0,3.3-.991,3.3-2.35,0-1.181-.833-1.887-2.8-2.371L74.3,26.4c-2.794-.675-4.089-1.98-4.089-4.1,0-2.623,2.286-4.426,5.533-4.426,3.214,0,5.416,1.8,5.492,4.426h-2.3c-.138-1.517-1.392-2.433-3.226-2.433s-3.087.927-3.087,2.275c0,1.075.8,1.708,2.76,2.192l1.675.411c3.121.738,4.417,1.991,4.417,4.217,0,2.845-2.267,4.627-5.871,4.627-3.373,0-5.649-1.74-5.8-4.491Z" transform="translate(3.473 -6.317)"/><path class="a" d="M84.061,19.3v2.625H86.17v1.8H84.061v6.112c0,.95.423,1.392,1.35,1.392a6.981,6.981,0,0,0,.748-.053V32.97a6.225,6.225,0,0,1-1.264.105c-2.245,0-3.121-.843-3.121-2.993V23.726H80.162v-1.8h1.613V19.3Z" transform="translate(5.799 -5.996)"/><path class="a" d="M86.065,27.012c0-3.489,2.054-5.681,5.259-5.681s5.26,2.192,5.26,5.681-2.035,5.681-5.26,5.681-5.259-2.184-5.259-5.681m8.2,0c0-2.393-1.1-3.805-2.94-3.805s-2.94,1.423-2.94,3.805c0,2.4,1.1,3.8,2.94,3.8s2.94-1.4,2.94-3.8" transform="translate(7.126 -5.54)"/><path class="a" d="M96.186,21.463h2.17v1.887h.053a2.647,2.647,0,0,1,2.667-2,3.448,3.448,0,0,1,.78.086v2.129a3.173,3.173,0,0,0-1.023-.137,2.294,2.294,0,0,0-2.372,2.551v6.577H96.186Z" transform="translate(9.4 -5.536)"/><path class="a" d="M111.219,29.3c-.306,2.013-2.266,3.395-4.774,3.395-3.226,0-5.228-2.162-5.228-5.629s2.013-5.734,5.133-5.734c3.068,0,5,2.108,5,5.469v.78h-7.832v.137a2.889,2.889,0,0,0,2.983,3.141,2.51,2.51,0,0,0,2.561-1.56Zm-7.693-3.309h5.543a2.666,2.666,0,0,0-2.719-2.814,2.807,2.807,0,0,0-2.824,2.814" transform="translate(10.53 -5.54)"/><path class="a" d="M38.311,8.731c2.166,0,3.438,1.331,3.438,3.631,0,2.334-1.261,3.677-3.438,3.677h-2.64V8.731Zm-1.505,6.274h1.378c1.528,0,2.41-.952,2.41-2.628a2.3,2.3,0,0,0-2.41-2.613H36.806Z" transform="translate(-4.197 -8.371)"/><path class="a" d="M41.681,12.969c0-1.778.993-2.861,2.6-2.861s2.6,1.083,2.6,2.861-.988,2.866-2.6,2.866-2.6-1.079-2.6-2.866m4.082,0c0-1.2-.536-1.895-1.479-1.895s-1.478.7-1.478,1.895.533,1.9,1.478,1.9,1.479-.7,1.479-1.9" transform="translate(-2.847 -8.062)"/><path class="a" d="M52.7,15.71H51.568l-1.14-4.061h-.086L49.207,15.71H48.089l-1.52-5.515h1.1l.988,4.208h.082l1.133-4.208h1.045L52.055,14.4h.086l.983-4.208h1.088Z" transform="translate(-1.749 -8.042)"/><path class="a" d="M53.854,10.215H54.9v.876h.083a1.65,1.65,0,0,1,1.645-.982,1.794,1.794,0,0,1,1.909,2.051v3.57H57.45v-3.3c0-.887-.387-1.326-1.19-1.326a1.264,1.264,0,0,0-1.317,1.4v3.226H53.854Z" transform="translate(-0.112 -8.062)"/><rect class="a" width="1.089" height="7.668" transform="translate(60.16 0)"/><path class="a" d="M61.218,12.969c0-1.778.993-2.861,2.6-2.861s2.6,1.083,2.6,2.861-.99,2.866-2.6,2.866-2.6-1.079-2.6-2.866m4.082,0c0-1.2-.536-1.895-1.479-1.895s-1.478.7-1.478,1.895.533,1.9,1.478,1.9,1.479-.7,1.479-1.9" transform="translate(1.543 -8.062)"/><path class="a" d="M66.4,14.17c0-.993.74-1.565,2.051-1.646l1.494-.087v-.475c0-.583-.385-.912-1.129-.912-.607,0-1.029.224-1.149.614H66.613c.111-.948,1-1.555,2.253-1.555,1.383,0,2.163.688,2.163,1.854v3.767H69.981v-.775H69.9a1.856,1.856,0,0,1-1.657.866A1.665,1.665,0,0,1,66.4,14.17m3.545-.472v-.46l-1.347.086c-.759.05-1.1.309-1.1.795s.431.785,1.023.785A1.3,1.3,0,0,0,69.945,13.7" transform="translate(2.707 -8.062)"/><path class="a" d="M71.348,13.344c0-1.743.9-2.846,2.289-2.846a1.817,1.817,0,0,1,1.691.968h.081V8.437H76.5V16.1H75.456v-.871h-.087a1.914,1.914,0,0,1-1.732.963c-1.4,0-2.289-1.1-2.289-2.851m1.124,0c0,1.17.551,1.874,1.473,1.874s1.484-.714,1.484-1.869-.573-1.874-1.484-1.874-1.473.709-1.473,1.869" transform="translate(3.819 -8.437)"/><path class="a" d="M79.23,12.969c0-1.778.993-2.861,2.6-2.861s2.6,1.083,2.6,2.861-.988,2.866-2.6,2.866-2.6-1.079-2.6-2.866m4.082,0c0-1.2-.536-1.895-1.479-1.895s-1.478.7-1.478,1.895.533,1.9,1.478,1.9,1.479-.7,1.479-1.9" transform="translate(5.59 -8.062)"/><path class="a" d="M84.67,10.215h1.047v.876H85.8a1.654,1.654,0,0,1,1.647-.982,1.793,1.793,0,0,1,1.907,2.051v3.57H88.264v-3.3c0-.887-.385-1.326-1.19-1.326a1.264,1.264,0,0,0-1.315,1.4v3.226H84.67Z" transform="translate(6.812 -8.062)"/><path class="a" d="M93.875,9.074v1.4h1.2v.916h-1.2v2.836c0,.577.238.83.78.83a3.7,3.7,0,0,0,.415-.026v.907a3.642,3.642,0,0,1-.593.055c-1.21,0-1.693-.426-1.693-1.489V11.389h-.874v-.916h.874v-1.4Z" transform="translate(8.439 -8.294)"/><path class="a" d="M95.705,8.437h1.079v3.038h.086a1.7,1.7,0,0,1,1.682-.987,1.817,1.817,0,0,1,1.9,2.056V16.1h-1.09V12.813c0-.881-.41-1.328-1.179-1.328a1.288,1.288,0,0,0-1.388,1.4V16.1H95.705Z" transform="translate(9.292 -8.437)"/><path class="a" d="M105.667,14.24a2.238,2.238,0,0,1-2.389,1.6c-1.58,0-2.547-1.084-2.547-2.846s.987-2.882,2.542-2.882c1.535,0,2.46,1.048,2.46,2.78v.38h-3.895v.061a1.457,1.457,0,0,0,1.468,1.58,1.324,1.324,0,0,0,1.313-.669Zm-3.828-1.777h2.785a1.331,1.331,0,0,0-1.357-1.429,1.411,1.411,0,0,0-1.428,1.429" transform="translate(10.421 -8.062)"/></svg>