<svg xmlns="http://www.w3.org/2000/svg" width="52.804" height="52.841" viewBox="0 0 52.804 52.841"><g transform="translate(-1000.757 -8630.741)"><g transform="translate(1000.757 8630.741)"><path d="M14.715,12a4.715,4.715,0,1,0,4.715,4.715A4.669,4.669,0,0,0,14.715,12Zm0,7.543a2.829,2.829,0,1,1,2.829-2.829A2.778,2.778,0,0,1,14.715,19.543Z" transform="translate(-4.342 -4.42)"/><path d="M55.672,4,36.814,7.769a.918.918,0,0,0-.754.943V17.2H24.744V8.712a.918.918,0,0,0-.754-.943L5.132,4a.733.733,0,0,0-.754.189A.858.858,0,0,0,4,4.941V55.859a.891.891,0,0,0,.943.943H55.861a.891.891,0,0,0,.943-.943V4.941a.858.858,0,0,0-.377-.754A.733.733,0,0,0,55.672,4ZM37.945,9.467,54.918,6.072V39.829H39.831V18.142a.891.891,0,0,0-.943-.943h-.943ZM22.859,26.628h6.6v5.658h-6.6Zm8.486,0h6.6v5.658h-6.6Zm6.6-7.543v5.658h-6.6V19.085Zm-8.486,0v5.658h-6.6V19.085ZM5.886,6.072,22.859,9.467V17.2h-.943a.891.891,0,0,0-.943.943V39.829H5.886Zm0,35.643H20.973v13.2H5.886Zm20.744,13.2V44.544a2.778,2.778,0,0,1,2.829-2.829h1.886a2.778,2.778,0,0,1,2.829,2.829V54.916Zm10.372,0h-.943V44.544a4.669,4.669,0,0,0-4.715-4.715H29.459a4.669,4.669,0,0,0-4.715,4.715V54.916H22.859V34.171H37.945V54.916Zm2.829,0v-13.2H54.918v13.2Z" transform="translate(-4 -3.961)"/><path d="M48.715,21.429A4.715,4.715,0,1,0,44,16.715,4.669,4.669,0,0,0,48.715,21.429Zm0-7.543a2.829,2.829,0,1,1-2.829,2.829A2.778,2.778,0,0,1,48.715,13.886Z" transform="translate(-6.283 -4.42)"/></g></g></svg>