<svg xmlns="http://www.w3.org/2000/svg" width="20" height="20" viewBox="0 0 20 20"><defs><style>.a{fill:#fff;opacity:0;}.b{fill:rgba(0,0,0,0.7);}</style></defs><g transform="translate(-1176 -4095)"><rect class="a" width="20" height="20" transform="translate(1176 4095)"/><path class="b" d="M10.056,313.887c2.017,0,2.256.008,3.053.044a4.179,4.179,0,0,1,1.4.26,2.5,2.5,0,0,1,1.434,1.434,4.182,4.182,0,0,1,.26,1.4c.036.8.044,1.036.044,3.053s-.008,2.256-.044,3.053a4.183,4.183,0,0,1-.26,1.4,2.5,2.5,0,0,1-1.434,1.434,4.173,4.173,0,0,1-1.4.26c-.8.036-1.036.044-3.053.044S7.8,326.268,7,326.232a4.173,4.173,0,0,1-1.4-.26,2.5,2.5,0,0,1-1.434-1.434,4.179,4.179,0,0,1-.26-1.4c-.036-.8-.044-1.036-.044-3.053s.008-2.257.044-3.053a4.178,4.178,0,0,1,.26-1.4A2.5,2.5,0,0,1,5.6,314.192a4.179,4.179,0,0,1,1.4-.26c.8-.036,1.036-.044,3.053-.044m0-1.361c-2.052,0-2.309.009-3.115.045a5.547,5.547,0,0,0-1.834.351,3.863,3.863,0,0,0-2.21,2.21,5.546,5.546,0,0,0-.351,1.834c-.037.806-.046,1.063-.046,3.115s.009,2.309.046,3.115a5.548,5.548,0,0,0,.351,1.834,3.862,3.862,0,0,0,2.21,2.21,5.542,5.542,0,0,0,1.834.351c.806.037,1.063.046,3.115.046s2.309-.009,3.115-.046A5.542,5.542,0,0,0,15,327.24a3.862,3.862,0,0,0,2.21-2.21,5.548,5.548,0,0,0,.351-1.834c.037-.806.046-1.063.046-3.115s-.009-2.309-.046-3.115a5.546,5.546,0,0,0-.351-1.834,3.863,3.863,0,0,0-2.21-2.21,5.547,5.547,0,0,0-1.834-.351c-.806-.037-1.063-.045-3.115-.045" transform="translate(1175.944 3785.034)"/></g></svg>