<svg xmlns="http://www.w3.org/2000/svg" width="104" height="104" viewBox="0 0 104 104"><defs><style>.a{fill:#fff;opacity:0;}.b,.c{fill:none;stroke:#202020;stroke-width:2.5px;}.b{fill-rule:evenodd;}</style></defs><g transform="translate(-825 -3247.25)"><rect class="a" width="104" height="104" transform="translate(825 3247.25)"/><g transform="translate(-149.452 -5209.25)"><g transform="translate(1003.452 8485.5)"><g transform="translate(0 0)"><path class="b" d="M35.208,3.755,26.49,15.045l-.553.717-.553-.717L16.665,3.755a19.282,19.282,0,0,0-9.785,8.453A28.569,28.569,0,0,0,2.937,26.028h46a28.568,28.568,0,0,0-3.943-13.819,19.283,19.283,0,0,0-9.785-8.453Z" transform="translate(-2.937 19.911)"/><ellipse class="c" cx="11.656" cy="11.656" rx="11.656" ry="11.656" transform="translate(11.343)"/></g></g></g></g></svg>