<svg xmlns="http://www.w3.org/2000/svg" xmlns:xlink="http://www.w3.org/1999/xlink" width="104" height="104" viewBox="0 0 104 104"><defs><style>.a,.d{fill:none;}.b{fill:#fff;opacity:0;}.c{clip-path:url(#a);}.d{stroke:#fff;stroke-width:0.7px;}</style><clipPath id="a"><rect class="a" width="49.9" height="60.011"/></clipPath></defs><g transform="translate(-491 -2864.25)"><rect class="b" width="104" height="104" transform="translate(491 2864.25)"/><g transform="translate(62 -28)"><g transform="translate(456 2914.5)"><g class="c"><path d="M14.978,16.442H1.68a1.329,1.329,0,0,1-1.33-1.33V1.814A1.329,1.329,0,0,1,1.68.484H12.318a1.33,1.33,0,1,1,0,2.66H3.01v10.64H13.65V9.793a1.33,1.33,0,1,1,2.66,0h0v5.319a1.329,1.329,0,0,1-1.33,1.33h0"/><path class="d" d="M14.978,16.442H1.68a1.329,1.329,0,0,1-1.33-1.33V1.814A1.329,1.329,0,0,1,1.68.484H12.318a1.33,1.33,0,1,1,0,2.66H3.01v10.64H13.65V9.793a1.33,1.33,0,1,1,2.66,0h0v5.319a1.329,1.329,0,0,1-1.33,1.33Z"/><path d="M8.328,12.451a1.327,1.327,0,0,1-.938-.392L4.637,9.306a1.33,1.33,0,0,1,1.877-1.84L8.329,9.241,16.793.817a1.33,1.33,0,0,1,2.024,1.726,1.4,1.4,0,0,1-.149.149l-9.4,9.368a1.331,1.331,0,0,1-.94.391"/><path class="d" d="M8.328,12.451a1.327,1.327,0,0,1-.938-.392L4.637,9.306a1.33,1.33,0,0,1,1.877-1.84L8.329,9.241,16.793.817a1.33,1.33,0,0,1,2.024,1.726,1.4,1.4,0,0,1-.149.149l-9.4,9.368A1.331,1.331,0,0,1,8.328,12.451Z"/><path d="M14.978,38.052H1.68a1.329,1.329,0,0,1-1.33-1.33v-13.3a1.329,1.329,0,0,1,1.33-1.33H8.329a1.33,1.33,0,0,1,0,2.66H3.01v10.64H13.65V31.4a1.33,1.33,0,1,1,2.66,0h0v5.319a1.329,1.329,0,0,1-1.33,1.33Z"/><path class="d" d="M14.978,38.052H1.68a1.329,1.329,0,0,1-1.33-1.33v-13.3a1.329,1.329,0,0,1,1.33-1.33H8.329a1.33,1.33,0,0,1,0,2.66H3.01v10.64H13.65V31.4a1.33,1.33,0,1,1,2.66,0h0v5.319a1.329,1.329,0,0,1-1.33,1.33Z"/><path d="M8.329,34.062a1.327,1.327,0,0,1-.938-.392L4.639,30.917a1.33,1.33,0,1,1,1.726-2.024,1.4,1.4,0,0,1,.149.149l1.815,1.809,8.464-8.458a1.33,1.33,0,0,1,2.024,1.726,1.31,1.31,0,0,1-.149.149l-9.4,9.4a1.33,1.33,0,0,1-.939.394"/><path class="d" d="M8.329,34.062a1.327,1.327,0,0,1-.938-.392L4.639,30.917a1.33,1.33,0,1,1,1.726-2.024,1.4,1.4,0,0,1,.149.149l1.815,1.809,8.464-8.458a1.33,1.33,0,0,1,2.024,1.726,1.31,1.31,0,0,1-.149.149l-9.4,9.4A1.33,1.33,0,0,1,8.329,34.062Z"/><path d="M14.978,59.661H1.68a1.329,1.329,0,0,1-1.33-1.33v-13.3A1.329,1.329,0,0,1,1.68,43.7H12.318a1.33,1.33,0,1,1,0,2.66H3.01V57H13.65V53.012a1.33,1.33,0,1,1,2.66,0h0v5.319a1.329,1.329,0,0,1-1.33,1.33Z"/><path class="d" d="M14.978,59.661H1.68a1.329,1.329,0,0,1-1.33-1.33v-13.3A1.329,1.329,0,0,1,1.68,43.7H12.318a1.33,1.33,0,1,1,0,2.66H3.01V57H13.65V53.012a1.33,1.33,0,1,1,2.66,0h0v5.319a1.329,1.329,0,0,1-1.33,1.33Z"/><path d="M8.328,55.67a1.327,1.327,0,0,1-.938-.392L4.637,52.525a1.33,1.33,0,0,1,1.877-1.84L8.329,52.46l8.464-8.424a1.33,1.33,0,0,1,2.024,1.726,1.4,1.4,0,0,1-.149.149l-9.4,9.368a1.331,1.331,0,0,1-.94.391"/><path class="d" d="M8.328,55.67a1.327,1.327,0,0,1-.938-.392L4.637,52.525a1.33,1.33,0,0,1,1.877-1.84L8.329,52.46l8.464-8.424a1.33,1.33,0,0,1,2.024,1.726,1.4,1.4,0,0,1-.149.149l-9.4,9.368A1.331,1.331,0,0,1,8.328,55.67Z"/><path d="M48.223,13.118h-23.6a1.33,1.33,0,1,1,0-2.66h23.6a1.33,1.33,0,1,1,0,2.66h0Z"/><path class="d" d="M48.223,13.118h-23.6a1.33,1.33,0,1,1,0-2.66h23.6a1.33,1.33,0,1,1,0,2.66h0Z"/><path d="M48.223,34.727h-23.6a1.33,1.33,0,0,1,0-2.66h23.6a1.33,1.33,0,0,1,0,2.66Z"/><path class="d" d="M48.223,34.727h-23.6a1.33,1.33,0,0,1,0-2.66h23.6a1.33,1.33,0,0,1,0,2.66Z"/><path d="M48.223,56.6h-23.6a1.33,1.33,0,1,1,0-2.66h23.6a1.33,1.33,0,0,1,0,2.66Z"/><path class="d" d="M48.223,56.6h-23.6a1.33,1.33,0,1,1,0-2.66h23.6a1.33,1.33,0,0,1,0,2.66Z"/><path d="M24.169,4.044a1.02,1.02,0,0,1-.428-.34.866.866,0,0,1-.159-.5h.484a.636.636,0,0,0,.2.412.726.726,0,0,0,.518.168.753.753,0,0,0,.512-.163.525.525,0,0,0,.187-.417.473.473,0,0,0-.109-.325.726.726,0,0,0-.275-.19,4.467,4.467,0,0,0-.446-.14,3.9,3.9,0,0,1-.552-.18.879.879,0,0,1-.355-.283.826.826,0,0,1-.147-.518.894.894,0,0,1,.145-.5.937.937,0,0,1,.407-.34,1.435,1.435,0,0,1,.6-.12,1.264,1.264,0,0,1,.8.245.907.907,0,0,1,.353.65h-.5a.536.536,0,0,0-.211-.352.742.742,0,0,0-.49-.153.7.7,0,0,0-.464.148.5.5,0,0,0-.181.412.445.445,0,0,0,.108.31.7.7,0,0,0,.265.182,4.5,4.5,0,0,0,.442.143,4.286,4.286,0,0,1,.556.187.946.946,0,0,1,.359.285.825.825,0,0,1,.15.523.926.926,0,0,1-.134.48.992.992,0,0,1-.4.364,1.316,1.316,0,0,1-.625.141,1.486,1.486,0,0,1-.618-.123"/><path d="M28.677,3.356H27.156l-.279.776H26.4L27.656.667h.526l1.255,3.465h-.48Zm-.13-.369-.63-1.761-.63,1.761Z"/><path d="M31.822,4.132l-.83-1.425h-.55V4.132h-.455V.647h1.125a1.5,1.5,0,0,1,.668.135.933.933,0,0,1,.407.365,1.018,1.018,0,0,1,.135.525,1.027,1.027,0,0,1-.207.635,1.016,1.016,0,0,1-.623.365l.875,1.46Zm-1.38-1.79h.67a.758.758,0,0,0,.555-.183.65.65,0,0,0,.185-.487.626.626,0,0,0-.182-.48.8.8,0,0,0-.558-.17h-.67Z"/><path d="M34.166.932V.517h.94V4.132h-.46V.932Z"/><path d="M36.166.945a1.232,1.232,0,0,1,1.956,0,2.692,2.692,0,0,1,.28,1.342,2.749,2.749,0,0,1-.28,1.36,1.229,1.229,0,0,1-1.956,0,2.75,2.75,0,0,1-.279-1.36A2.693,2.693,0,0,1,36.166.945m1.728.6a.94.94,0,0,0-.234-.488.68.68,0,0,0-.513-.185.687.687,0,0,0-.518.185.949.949,0,0,0-.235.488,4.038,4.038,0,0,0-.058.737,4.19,4.19,0,0,0,.058.755.951.951,0,0,0,.235.49.687.687,0,0,0,.518.185.68.68,0,0,0,.513-.185.943.943,0,0,0,.234-.49,4.1,4.1,0,0,0,.058-.755,3.951,3.951,0,0,0-.058-.737"/><path d="M39.307.945a1.232,1.232,0,0,1,1.956,0,2.692,2.692,0,0,1,.28,1.342,2.749,2.749,0,0,1-.28,1.36,1.229,1.229,0,0,1-1.956,0,2.749,2.749,0,0,1-.28-1.36,2.692,2.692,0,0,1,.28-1.342m1.728.6a.941.941,0,0,0-.235-.488.809.809,0,0,0-1.03,0,.933.933,0,0,0-.235.488,4.039,4.039,0,0,0-.058.737,4.19,4.19,0,0,0,.058.755.936.936,0,0,0,.235.49.809.809,0,0,0,1.03,0,.944.944,0,0,0,.235-.49,4.19,4.19,0,0,0,.058-.755,4.038,4.038,0,0,0-.058-.737"/><path d="M24.017,26.188a1.269,1.269,0,0,1-.51-1.006h1.254a.464.464,0,0,0,.132.324.475.475,0,0,0,.561.022.27.27,0,0,0,.1-.226.319.319,0,0,0-.174-.288,3.154,3.154,0,0,0-.564-.227,5.079,5.079,0,0,1-.669-.267,1.287,1.287,0,0,1-.444-.379,1.045,1.045,0,0,1-.189-.65,1.184,1.184,0,0,1,.2-.7,1.264,1.264,0,0,1,.564-.442A2.1,2.1,0,0,1,25.1,22.2a1.868,1.868,0,0,1,1.179.344,1.242,1.242,0,0,1,.471.969H25.475a.374.374,0,0,0-.117-.287.421.421,0,0,0-.285-.1.306.306,0,0,0-.216.079.284.284,0,0,0-.084.221.272.272,0,0,0,.093.207.833.833,0,0,0,.231.151c.092.042.228.094.408.159a5.024,5.024,0,0,1,.663.272,1.379,1.379,0,0,1,.45.378.972.972,0,0,1,.189.615,1.243,1.243,0,0,1-.189.678,1.306,1.306,0,0,1-.546.475,1.9,1.9,0,0,1-.843.174,1.99,1.99,0,0,1-1.212-.351"/><path d="M30.029,25.805h-1.5L28.3,26.5H27.065l1.542-4.231h1.356L31.5,26.5H30.257Zm-.294-.9-.456-1.368-.45,1.368Z"/><path d="M34.025,26.5l-.84-1.559h-.126V26.5H31.883v-4.23h1.854a1.9,1.9,0,0,1,.864.178,1.238,1.238,0,0,1,.534.485,1.351,1.351,0,0,1,.18.693,1.259,1.259,0,0,1-.237.759,1.275,1.275,0,0,1-.693.465l.954,1.65Zm-.966-2.364h.582a.509.509,0,0,0,.36-.113.435.435,0,0,0,.12-.33A.423.423,0,0,0,34,23.367a.5.5,0,0,0-.357-.117h-.582Z"/><path d="M37.811,24.769a4.168,4.168,0,0,0,.624-.682,1.158,1.158,0,0,0,.252-.669.463.463,0,0,0-.087-.3.335.335,0,0,0-.525.039.754.754,0,0,0-.09.428h-1.14a1.78,1.78,0,0,1,.234-.884,1.306,1.306,0,0,1,.564-.516,1.779,1.779,0,0,1,.773-.165,1.484,1.484,0,0,1,1.1.365,1.3,1.3,0,0,1,.359.948,1.884,1.884,0,0,1-.417,1.17,4.524,4.524,0,0,1-1.041.979h1.5v.954H36.857v-.883q.582-.456.954-.785"/><path d="M40.727,22.614a1.766,1.766,0,0,1,2.642,0,2.751,2.751,0,0,1,.424,1.626,2.789,2.789,0,0,1-.421,1.638,1.773,1.773,0,0,1-2.648,0,2.812,2.812,0,0,1-.417-1.638,2.773,2.773,0,0,1,.42-1.626m1.788.8a.528.528,0,0,0-.937,0,2.344,2.344,0,0,0-.113.825,2.4,2.4,0,0,0,.111.837.532.532,0,0,0,.942,0,2.421,2.421,0,0,0,.111-.837,2.318,2.318,0,0,0-.114-.825"/><path d="M44.669,22.614a1.767,1.767,0,0,1,2.643,0,2.751,2.751,0,0,1,.423,1.626,2.789,2.789,0,0,1-.42,1.638,1.774,1.774,0,0,1-2.649,0,2.819,2.819,0,0,1-.417-1.638,2.773,2.773,0,0,1,.42-1.626m1.788.8a.527.527,0,0,0-.936,0,2.3,2.3,0,0,0-.114.825,2.393,2.393,0,0,0,.112.837.53.53,0,0,0,.94,0,2.4,2.4,0,0,0,.111-.837,2.321,2.321,0,0,0-.113-.825"/><path d="M24.169,48.773a1.02,1.02,0,0,1-.428-.34.866.866,0,0,1-.159-.5h.484a.636.636,0,0,0,.2.412.726.726,0,0,0,.518.168.753.753,0,0,0,.512-.163.525.525,0,0,0,.187-.417.473.473,0,0,0-.109-.325.726.726,0,0,0-.275-.19,4.467,4.467,0,0,0-.446-.14,3.9,3.9,0,0,1-.552-.18.879.879,0,0,1-.355-.283.826.826,0,0,1-.147-.518.894.894,0,0,1,.145-.5.937.937,0,0,1,.407-.34,1.435,1.435,0,0,1,.6-.12,1.264,1.264,0,0,1,.8.245.907.907,0,0,1,.353.65h-.5a.536.536,0,0,0-.211-.352.742.742,0,0,0-.49-.153.7.7,0,0,0-.464.148.5.5,0,0,0-.181.412.445.445,0,0,0,.108.31.7.7,0,0,0,.265.182,4.5,4.5,0,0,0,.442.143,4.286,4.286,0,0,1,.556.187.946.946,0,0,1,.359.285.825.825,0,0,1,.15.523.926.926,0,0,1-.134.48.992.992,0,0,1-.4.364,1.316,1.316,0,0,1-.625.141,1.486,1.486,0,0,1-.618-.123"/><path d="M28.677,48.085H27.156l-.279.776H26.4L27.656,45.4h.526l1.255,3.465h-.48Zm-.13-.369-.63-1.761-.63,1.761Z"/><path d="M31.822,48.861l-.83-1.425h-.55v1.425h-.455V45.376h1.125a1.5,1.5,0,0,1,.668.135.933.933,0,0,1,.407.365,1.01,1.01,0,0,1-.695,1.525l.875,1.46Zm-1.38-1.79h.67a.758.758,0,0,0,.555-.183.65.65,0,0,0,.185-.487.626.626,0,0,0-.182-.48.8.8,0,0,0-.558-.17h-.67Z"/><path d="M34.631,45.436a1.272,1.272,0,0,1,.83-.26,1.308,1.308,0,0,1,.588.122.891.891,0,0,1,.375.332.9.9,0,0,1,.128.476.839.839,0,0,1-.178.535.8.8,0,0,1-.463.29v.025a.923.923,0,0,1,.516.315.949.949,0,0,1,.189.615,1.007,1.007,0,0,1-.13.512.884.884,0,0,1-.389.357,1.383,1.383,0,0,1-.625.131,1.329,1.329,0,0,1-.87-.278,1.07,1.07,0,0,1-.38-.787h.439a.763.763,0,0,0,.245.49.8.8,0,0,0,.561.189A.721.721,0,0,0,36,48.318a.639.639,0,0,0,.183-.472.6.6,0,0,0-.25-.54,1.389,1.389,0,0,0-.755-.165h-.115v-.38h.12a1.347,1.347,0,0,0,.694-.153.5.5,0,0,0,.235-.457.55.55,0,0,0-.172-.425.7.7,0,0,0-.493-.16.754.754,0,0,0-.5.16.639.639,0,0,0-.224.43h-.445a.976.976,0,0,1,.354-.72"/><path d="M37.512,45.674a1.232,1.232,0,0,1,1.956,0,2.692,2.692,0,0,1,.28,1.342,2.749,2.749,0,0,1-.28,1.36,1.229,1.229,0,0,1-1.956,0,2.749,2.749,0,0,1-.28-1.36,2.692,2.692,0,0,1,.28-1.342m1.728.6a.941.941,0,0,0-.235-.488.809.809,0,0,0-1.03,0,.933.933,0,0,0-.235.488,4.038,4.038,0,0,0-.058.737,4.19,4.19,0,0,0,.058.755.936.936,0,0,0,.235.49.809.809,0,0,0,1.03,0,.944.944,0,0,0,.235-.49,4.19,4.19,0,0,0,.058-.755,4.039,4.039,0,0,0-.058-.737"/><path d="M40.651,45.674a1.232,1.232,0,0,1,1.956,0,2.692,2.692,0,0,1,.28,1.342,2.749,2.749,0,0,1-.28,1.36,1.229,1.229,0,0,1-1.956,0,2.749,2.749,0,0,1-.28-1.36,2.692,2.692,0,0,1,.28-1.342m1.728.6a.941.941,0,0,0-.235-.488.809.809,0,0,0-1.03,0,.933.933,0,0,0-.235.488,4.038,4.038,0,0,0-.058.737,4.19,4.19,0,0,0,.058.755.936.936,0,0,0,.235.49.809.809,0,0,0,1.03,0,.944.944,0,0,0,.235-.49,4.19,4.19,0,0,0,.058-.755,4.039,4.039,0,0,0-.058-.737"/></g></g></g></g></svg>