<svg xmlns="http://www.w3.org/2000/svg" width="68" height="68" viewBox="0 0 68 68"><defs><style>.a{fill:#fff;opacity:0;}.b{fill:#ff6809;}</style></defs><g transform="translate(-586 -2457.25)"><rect class="a" width="68" height="68" transform="translate(586 2457.25)"/><g transform="translate(598 2466.25)"><path d="M50.6,10.214,32.439,2.336a4.274,4.274,0,0,0-3.326,0L10.955,10.214A2.846,2.846,0,0,0,9.2,12.847V30.025a21.76,21.76,0,0,0,8.543,17.261c4.685,3.772,10.041,5.49,13.037,5.49s8.352-1.718,13.035-5.49a21.759,21.759,0,0,0,8.545-17.261V12.847A2.847,2.847,0,0,0,50.6,10.214ZM49.186,30.025a18.681,18.681,0,0,1-7.36,14.79c-4.362,3.513-9,4.787-11.046,4.787S24.1,48.327,19.735,44.814a18.682,18.682,0,0,1-7.361-14.79V13.057l18-7.807a1.136,1.136,0,0,1,.807,0l18.007,7.808Z" transform="translate(-9.2 -1.999)"/><path class="b" d="M34.818,42.651a1.588,1.588,0,0,0-2.645,1.757L35.688,49.7a2.169,2.169,0,0,0,1.443.94,2.038,2.038,0,0,0,.34.028,2.118,2.118,0,0,0,1.288-.436l11.657-8.86a1.587,1.587,0,1,0-1.92-2.527L37.727,47.025Z" transform="translate(-19.898 -19.203)"/></g></g></svg>