<svg xmlns="http://www.w3.org/2000/svg" width="738.926" height="22.52" viewBox="0 0 738.926 22.52"><defs><style>.a{fill:#bfbfbf;stroke:#fff;stroke-width:0.5px;fill-rule:evenodd;}.b{fill:none;stroke:#bfbfbf;stroke-width:2px;stroke-dasharray:8 3;}</style></defs><g transform="translate(-351 -2910.526)"><g transform="translate(319.034 2910.884)"><g transform="translate(133.025 14.538) rotate(-90)"><path class="a" d="M13.024,0,7.251,5.527,1.443.035,0,1.478l7.216,7.04,7.322-7Z" transform="translate(0)"/></g><line class="b" x2="108" transform="translate(31.966 7.094)"/></g><g transform="translate(634.034 2918.153)"><g transform="translate(133.025 14.538) rotate(-90)"><path class="a" d="M13.024,0,7.251,5.527,1.443.035,0,1.478l7.216,7.04,7.322-7Z" transform="translate(0)"/></g><line class="b" x2="108" transform="translate(31.966 7.094)"/></g><g transform="translate(948.034 2910.884)"><g transform="translate(133.025 14.538) rotate(-90)"><path class="a" d="M13.024,0,7.251,5.527,1.443.035,0,1.478l7.216,7.04,7.322-7Z" transform="translate(0)"/></g><line class="b" x2="108" transform="translate(31.966 7.094)"/></g></g></svg>