<svg xmlns="http://www.w3.org/2000/svg" width="20" height="20" viewBox="0 0 20 20">
  <g id="Linkedin" transform="translate(-1176 -4123)">
    <rect id="Rectangle_1289" data-name="Rectangle 1289" width="20" height="20" transform="translate(1176 4123)" fill="#fff" opacity="0"/>
    <path id="Path_2926" data-name="Path 2926" d="M36.114,656.778c.2-.221.359-.446.562-.637a3.083,3.083,0,0,1,2.218-.875,5.131,5.131,0,0,1,1.395.17,2.726,2.726,0,0,1,1.935,2.036,8.532,8.532,0,0,1,.258,2.332c0,1.658,0,3.315,0,4.973,0,.155-.043.2-.2.195q-1.281-.011-2.562,0c-.15,0-.183-.045-.182-.187q.007-2.366,0-4.732a4.25,4.25,0,0,0-.137-1.175,1.321,1.321,0,0,0-1.453-1.029,1.588,1.588,0,0,0-1.668,1.585,5.915,5.915,0,0,0-.045.74c0,1.534,0,3.068,0,4.6,0,.153-.038.2-.194.2q-1.29-.011-2.581,0c-.138,0-.178-.036-.178-.176q.006-4.556,0-9.111c0-.15.049-.185.191-.184q1.225.009,2.451,0c.15,0,.189.047.186.19-.008.363,0,.726,0,1.089" transform="translate(1150.629 3473.227)" fill="rgba(0,0,0,0.7)"/>
    <path id="Path_2927" data-name="Path 2927" d="M9.22,661.326c0,1.5,0,3.005,0,4.508,0,.167-.041.217-.214.216-.854-.009-1.707-.007-2.561,0-.137,0-.178-.033-.178-.175q.006-4.563,0-9.126c0-.126.03-.171.164-.17.866.006,1.732.007,2.6,0,.166,0,.189.063.188.206q-.006,2.272,0,4.544" transform="translate(1172.844 3472.149)" fill="rgba(0,0,0,0.7)"/>
    <path id="Path_2928" data-name="Path 2928" d="M8.41,631.779a1.705,1.705,0,1,1-1.7-1.7,1.711,1.711,0,0,1,1.7,1.7" transform="translate(1173.889 3493.933)" fill="rgba(0,0,0,0.7)"/>
  </g>
</svg>
