<svg xmlns="http://www.w3.org/2000/svg" width="24" height="24" viewBox="0 0 24 24"><path d="M142.533-817l-8.767-8.767a7.35,7.35,0,0,1-2.332,1.35,8.245,8.245,0,0,1-2.835.483,8.3,8.3,0,0,1-6.1-2.5,8.226,8.226,0,0,1-2.5-6.033,8.221,8.221,0,0,1,2.5-6.033,8.241,8.241,0,0,1,6.05-2.5,8.186,8.186,0,0,1,6.033,2.5,8.255,8.255,0,0,1,2.483,6.038,8.3,8.3,0,0,1-.467,2.762,8.459,8.459,0,0,1-1.4,2.5l8.8,8.733Zm-13.967-8.933a6.234,6.234,0,0,0,4.6-1.917,6.328,6.328,0,0,0,1.9-4.617,6.328,6.328,0,0,0-1.9-4.617,6.234,6.234,0,0,0-4.6-1.917,6.33,6.33,0,0,0-4.651,1.917A6.3,6.3,0,0,0,122-832.467a6.3,6.3,0,0,0,1.915,4.617A6.33,6.33,0,0,0,128.567-825.933Z" transform="translate(-120 841)"/></svg>