<svg xmlns="http://www.w3.org/2000/svg" width="20" height="20" viewBox="0 0 20 20">
  <g id="Twitter" transform="translate(-1176 -4067)">
    <rect id="Rectangle_1287" data-name="Rectangle 1287" width="20" height="20" transform="translate(1176 4067)" fill="#fff" opacity="0"/>
    <path id="Path_2924" data-name="Path 2924" d="M6.2,174.674a9,9,0,0,0,9.066-9.066q0-.207-.009-.412a6.484,6.484,0,0,0,1.59-1.65,6.359,6.359,0,0,1-1.83.5,3.2,3.2,0,0,0,1.4-1.763,6.387,6.387,0,0,1-2.023.773,3.189,3.189,0,0,0-5.43,2.906A9.046,9.046,0,0,1,2.4,162.636a3.189,3.189,0,0,0,.986,4.254,3.165,3.165,0,0,1-1.443-.4c0,.013,0,.027,0,.041A3.188,3.188,0,0,0,4.5,169.655a3.183,3.183,0,0,1-1.439.055,3.19,3.19,0,0,0,2.977,2.213,6.393,6.393,0,0,1-3.958,1.364,6.472,6.472,0,0,1-.76-.044A9.02,9.02,0,0,0,6.2,174.674" transform="translate(1176.916 3908.757)" fill="rgba(0,0,0,0.7)"/>
  </g>
</svg>
