<svg xmlns="http://www.w3.org/2000/svg" width="68" height="68"><path style="fill:#fff" d="M0 0h68v68H0z"/><path d="M35.888 8.93a13.768 13.768 0 0 0-7.649 25.2v12.83a2.467 2.467 0 0 0 3.948 1.974l.054-.044 3.647-3.09 3.657 3.134.054.044a2.467 2.467 0 0 0 3.948-1.974V34.131a13.768 13.768 0 0 0-7.659-25.2Zm5.675 38.061a.493.493 0 0 1-.765.41l-4.268-3.647a.987.987 0 0 0-1.283 0l-4.268 3.652a.493.493 0 0 1-.765-.41V35.247a13.723 13.723 0 0 0 11.35 0ZM35.888 34.5a11.8 11.8 0 1 1 11.8-11.8 11.8 11.8 0 0 1-11.8 11.8Z" transform="translate(-2.14 5.07)" style="stroke:#000;stroke-width:.2px"/><path d="m48.975 25.76-4.12-.632-1.816-3.75a.987.987 0 0 0-.883-.558.987.987 0 0 0-.883.543L39.4 25.088l-4.13.567a.987.987 0 0 0-.558 1.668l2.961 2.961-.74 4.086a.987.987 0 0 0 1.426 1.051l3.706-1.91 3.676 1.974a.987.987 0 0 0 1.441-1.031l-.676-4.12 3.01-2.887a.987.987 0 0 0-.533-1.688Zm-4.214 3.509a.987.987 0 0 0-.291.873l.43 2.658-2.369-1.268a.987.987 0 0 0-.918 0l-2.393 1.224.493-2.645a.987.987 0 0 0-.276-.878l-1.929-1.9 2.665-.365a.987.987 0 0 0 .745-.533l1.189-2.388 1.174 2.418a.987.987 0 0 0 .74.548l2.66.41Z" transform="translate(-8.363 -.953)" style="fill:#ff6809"/></svg>