<svg xmlns="http://www.w3.org/2000/svg" width="104" height="104"><defs><style>.b{stroke:#000;stroke-width:.8px}</style></defs><path class="b" d="M46.261 64.035H29.632a15.233 15.233 0 0 1 15.187-14.4 15.008 15.008 0 0 1 6.578 1.5.803.803 0 1 0 .693-1.449 16.816 16.816 0 0 0-24.089 15.149.807.807 0 0 0 .8.8h17.46a.8.8 0 1 0 0-1.6ZM44.543 46.441a9.721 9.721 0 1 0-9.72-9.72 9.736 9.736 0 0 0 9.72 9.72Zm0-17.834a8.114 8.114 0 1 1-8.114 8.114 8.122 8.122 0 0 1 8.114-8.114Z"/><path class="b" d="M75.683 55.484h-4.01v-5.617a.807.807 0 0 0-.8-.8h-4.28a.807.807 0 0 0-.8.8v5.617H50.546a.807.807 0 0 0-.8.8v20.327a.807.807 0 0 0 .8.8h25.137a.807.807 0 0 0 .8-.8V56.288a.807.807 0 0 0-.8-.804Zm-8.287-4.813h2.678v10.162h-2.678Zm-1.607 6.42v4.545a.807.807 0 0 0 .8.8h4.277a.807.807 0 0 0 .8-.8v-4.545h3.206v12.84h-23.53v-12.84ZM51.342 75.808V71.53H74.88v4.277Z"/><path class="b" d="M61.24 62.44h.536a.804.804 0 0 0 0-1.607h-.536a.804.804 0 1 0 0 1.607ZM61.24 66.182h.536a.804.804 0 0 0 0-1.607h-.536a.804.804 0 1 0 0 1.607ZM55.359 62.44h.536a.804.804 0 0 0 0-1.607h-.536a.804.804 0 0 0 0 1.607ZM55.359 66.182h.536a.804.804 0 0 0 0-1.607h-.536a.804.804 0 0 0 0 1.607Z"/></svg>