<svg xmlns="http://www.w3.org/2000/svg" width="104" height="104"><defs><style>.b{stroke:#000}</style></defs><path class="b" d="M39.547 52.526a.654.654 0 0 0-.652.652v13.083a.652.652 0 1 0 1.3 0V53.178a.654.654 0 0 0-.652-.652Z"/><path class="b" d="M75.545 39.523a.654.654 0 0 0 .652-.652V33.65a.654.654 0 0 0-.652-.65H44.261a.652.652 0 0 0-.652.652v5.215a.652.652 0 0 0 .652.652 4.563 4.563 0 1 1 .1 9.125H29.152a.654.654 0 0 0-.652.652v5.214a.654.654 0 0 0 .652.652 4.563 4.563 0 1 1 0 9.125.654.654 0 0 0-.652.652v5.211a.654.654 0 0 0 .652.652h31.287a.652.652 0 0 0 .652-.652v-5.211a.652.652 0 0 0-.652-.652 4.563 4.563 0 1 1 0-9.125.652.652 0 0 0 .652-.652v-5.215a.652.652 0 0 0-.652-.652h-5.136v-11.1a.652.652 0 0 0-1.3 0v11.1h-6.092a5.838 5.838 0 0 0-3-10.382v-3.952h29.983v3.947a5.866 5.866 0 0 0 0 11.66v3.947h-9.225a.652.652 0 1 0 0 1.3h9.876a.647.647 0 0 0 .459-.19.657.657 0 0 0 .183-.467v-5.211a.654.654 0 0 0-.652-.652 4.563 4.563 0 0 1 0-9.125ZM59.8 49.95v3.95a5.866 5.866 0 0 0 0 11.66v3.947h-30V65.55a5.866 5.866 0 0 0 0-11.66v-3.948h14.545Z"/></svg>