<svg xmlns="http://www.w3.org/2000/svg" width="68" height="68"><path d="M16.416 16.392a25.372 25.372 0 0 0-7.074 13.713 25.878 25.878 0 0 0 2.064 15.108 25.41 25.41 0 1 0 8.056-31.4 25.835 25.835 0 0 0-3.046 2.577 1.673 1.673 0 0 0 2.365 2.363c.424-.424.87-.837 1.317-1.227a16.431 16.431 0 0 1 1.305-1.038 23.82 23.82 0 0 1 3.113-1.886c.234-.123.469-.234.7-.346.145-.067.29-.123.424-.19.457-.212-.179.067.1-.045a20.95 20.95 0 0 1 1.674-.614 24.526 24.526 0 0 1 3.437-.848c.1-.022.815-.123.469-.078.3-.045.614-.078.915-.1a20.207 20.207 0 0 1 1.83-.089 24.02 24.02 0 0 1 3.359.19c-.379-.045.123.022.167.022.156.022.3.045.457.078.257.045.5.089.759.145.6.123 1.205.279 1.8.446a20.98 20.98 0 0 1 1.618.536c.245.089.48.19.725.279.469.19-.29-.134.179.078.167.078.335.145.5.223a21.691 21.691 0 0 1 5.78 3.883 23.726 23.726 0 0 1 2.432 2.644c.335.413-.179-.257.134.167.089.134.19.257.279.391.156.212.3.435.457.658.357.524.681 1.071.993 1.618.279.5.536 1.015.781 1.54.067.145.123.29.19.424.022.045.123.29.011.033.145.335.268.669.391 1.015a23.57 23.57 0 0 1 .926 3.258q.1.452.167.9a2.8 2.8 0 0 1 .045.3c.011.045.078.547.022.167.078.6.134 1.216.167 1.83a24.617 24.617 0 0 1-.078 3.515 15.95 15.95 0 0 1-.089.759c.045-.379-.022.123-.022.167-.011.1-.033.2-.045.3a21 21 0 0 1-.379 1.808 23.982 23.982 0 0 1-1.116 3.381c.123-.279-.011.033-.045.1-.056.123-.112.234-.156.357-.134.279-.268.569-.413.848a21.61 21.61 0 0 1-.893 1.573c-.29.48-.6.937-.926 1.395a14.632 14.632 0 0 1-1.038 1.305 24.971 24.971 0 0 1-2.667 2.656c-.2.179-.413.346-.625.513-.413.335.257-.179-.167.134-.134.089-.257.19-.391.279-.469.335-.96.658-1.462.971a22.329 22.329 0 0 1-2.354 1.261c-.089.045-.19.089-.279.134a2.264 2.264 0 0 1-.29.123c.156-.067.156-.067-.033.011a24.36 24.36 0 0 1-3.381 1.093c-.524.123-1.049.234-1.584.324l-.379.067c-.045.011-.547.078-.167.022-.3.045-.614.078-.915.1a24.642 24.642 0 0 1-3.515.056 27.838 27.838 0 0 1-1.674-.156c.335.045 0 0-.089-.011a4.56 4.56 0 0 0-.379-.056 30.88 30.88 0 0 1-.982-.19 23.269 23.269 0 0 1-3.336-.971c-.29-.112-.58-.223-.87-.346.067.022.268.123-.033-.011-.145-.067-.29-.123-.424-.19a23.999 23.999 0 0 1-1.674-.859c-.5-.29-1-.591-1.484-.915-.223-.145-.435-.3-.658-.457-.134-.089-.257-.19-.391-.279-.3-.223.1.089-.167-.134a23.887 23.887 0 0 1-2.755-2.541c-.4-.435-.792-.893-1.16-1.361-.335-.413.179.257-.134-.167l-.19-.257c-.223-.3-.435-.6-.636-.915a24.277 24.277 0 0 1-1.685-3.024c-.067-.145-.123-.29-.19-.424-.212-.469.112.3-.078-.179-.1-.245-.19-.48-.279-.725a24.87 24.87 0 0 1-.58-1.763q-.234-.82-.4-1.64c-.056-.245-.1-.5-.145-.759-.022-.156-.056-.3-.078-.457-.011-.1-.033-.2-.045-.3.022.19.022.19 0-.011a26.045 26.045 0 0 1-.167-3.359c.011-.558.045-1.127.089-1.685.022-.279.056-.558.089-.837.033-.3-.067.4.011-.089l.1-.6a23.125 23.125 0 0 1 .848-3.359 19.29 19.29 0 0 1 .569-1.529c.19-.469-.134.29.078-.179.067-.145.123-.29.19-.424.134-.279.268-.569.413-.848a23.844 23.844 0 0 1 1.908-3.1c.078-.112.156-.212.234-.324.179-.245-.245.29.078-.112.2-.257.413-.5.614-.748.391-.457.8-.893 1.227-1.317a1.7 1.7 0 0 0 0-2.365 1.677 1.677 0 0 0-2.344-.004Z"/><path d="M179.086 180.124q2.075-5.289 4.162-10.578c.2-.5.391-.993.591-1.5a1.691 1.691 0 0 0-2.064-2.064q-5.121 1.891-10.232 3.771c-.614.223-1.239.457-1.852.681a2.117 2.117 0 0 0-1.205.848 3.033 3.033 0 0 0-.257.692q-.854 2.762-1.7 5.523c-.524 1.7-1.038 3.381-1.562 5.077a1.694 1.694 0 0 0 2.064 2.064c3.18-.982 6.349-1.953 9.529-2.935.457-.134.9-.279 1.361-.413a1.718 1.718 0 0 0 1.172-2.064 1.694 1.694 0 0 0-2.064-1.172c-3.18.982-6.349 1.953-9.529 2.935-.457.134-.9.279-1.361.413l2.064 2.064c.982-3.18 1.953-6.349 2.935-9.529.134-.457.279-.9.413-1.361l-1.172 1.172q5.389-1.992 10.767-3.972c.513-.19 1.015-.379 1.529-.558l-2.064-2.064q-2.075 5.289-4.162 10.578c-.2.5-.391.993-.591 1.5a1.69 1.69 0 0 0 1.172 2.064 1.711 1.711 0 0 0 2.056-1.172Z" transform="translate(-139.996 -140.925)" style="fill:#ff6809"/></svg>