<svg xmlns="http://www.w3.org/2000/svg" width="132.497" height="139.614"><defs><filter id="a" x="0" y="20.64" width="89.793" height="89.793" filterUnits="userSpaceOnUse"><feOffset dy="8"/><feGaussianBlur stdDeviation="12" result="b"/><feFlood flood-opacity=".161"/><feComposite operator="in" in2="b"/><feComposite in="SourceGraphic"/></filter><filter id="c" x="42.703" y="49.821" width="89.793" height="89.793" filterUnits="userSpaceOnUse"><feOffset dy="8"/><feGaussianBlur stdDeviation="12" result="d"/><feFlood flood-opacity=".161"/><feComposite operator="in" in2="d"/><feComposite in="SourceGraphic"/></filter><filter id="e" x="27" y="0" width="89.79" height="89.79" filterUnits="userSpaceOnUse"><feOffset dy="8"/><feGaussianBlur stdDeviation="12" result="f"/><feFlood flood-opacity=".161"/><feComposite operator="in" in2="f"/><feComposite in="SourceGraphic"/></filter><filter id="g" x="20" y="21" width="89.79" height="89.79" filterUnits="userSpaceOnUse"><feOffset dy="8"/><feGaussianBlur stdDeviation="12" result="h"/><feFlood flood-opacity=".161"/><feComposite operator="in" in2="h"/><feComposite in="SourceGraphic"/></filter><filter id="i" x="1.423" y="41.28" width="89.793" height="89.793" filterUnits="userSpaceOnUse"><feOffset dy="8"/><feGaussianBlur stdDeviation="12" result="j"/><feFlood flood-opacity=".161"/><feComposite operator="in" in2="j"/><feComposite in="SourceGraphic"/></filter><style>.c{fill:#f7f7f7}.d{fill:#000000b3}</style></defs><path d="M69.939 20H34.165a3.912 3.912 0 0 0-3.865 3.865v58.52a3.912 3.912 0 0 0 3.865 3.865h35.774a3.912 3.912 0 0 0 3.861-3.866V23.865A3.912 3.912 0 0 0 69.939 20ZM71.6 82.384a1.7 1.7 0 0 1-1.656 1.656H34.165a1.7 1.7 0 0 1-1.656-1.656V23.865a1.7 1.7 0 0 1 1.656-1.656h35.774a1.7 1.7 0 0 1 1.661 1.656ZM52.052 70.349a4.858 4.858 0 1 0 4.858 4.858 4.9 4.9 0 0 0-4.858-4.858Zm0 7.4A2.65 2.65 0 1 1 54.7 75.1a2.687 2.687 0 0 1-2.648 2.647Z" transform="translate(14.485 18.903)" style="stroke:#fff;stroke-width:.5px"/><circle class="c" cx="8.897" cy="8.897" r="8.897" transform="translate(36 48.64)" style="filter:url(#a)"/><path class="d" d="M43.442 60.111a4.2 4.2 0 0 0 4.231-4.231v-.192a3.025 3.025 0 0 0 .742-.77 2.968 2.968 0 0 1-.854.234 1.492 1.492 0 0 0 .654-.823 2.981 2.981 0 0 1-.944.361 1.488 1.488 0 0 0-2.534 1.356 4.222 4.222 0 0 1-3.065-1.554 1.488 1.488 0 0 0 .46 1.985 1.477 1.477 0 0 1-.674-.186v.019a1.488 1.488 0 0 0 1.184 1.458 1.486 1.486 0 0 1-.672.025 1.489 1.489 0 0 0 1.389 1.033 2.984 2.984 0 0 1-1.847.637 3.017 3.017 0 0 1-.355-.021 4.209 4.209 0 0 0 2.279.668"/><g style="filter:url(#c)"><circle cx="8.897" cy="8.897" r="8.897" transform="translate(78.703 77.821)" style="fill:#fff"/></g><path class="d" d="M87.282 83.675c.941 0 1.053 0 1.425.021a1.951 1.951 0 0 1 .655.121 1.167 1.167 0 0 1 .669.669 1.952 1.952 0 0 1 .121.655c.017.372.02.483.02 1.425s0 1.053-.02 1.425a1.952 1.952 0 0 1-.121.655 1.167 1.167 0 0 1-.669.669 1.947 1.947 0 0 1-.655.122c-.372.017-.483.02-1.425.02s-1.053 0-1.425-.02a1.947 1.947 0 0 1-.655-.122 1.167 1.167 0 0 1-.669-.669 1.95 1.95 0 0 1-.121-.655c-.017-.372-.02-.483-.02-1.425s0-1.053.02-1.425a1.95 1.95 0 0 1 .121-.655 1.167 1.167 0 0 1 .669-.669 1.951 1.951 0 0 1 .655-.121c.372-.017.483-.021 1.425-.021m0-.635c-.958 0-1.078 0-1.454.021a2.588 2.588 0 0 0-.856.164 1.8 1.8 0 0 0-1.031 1.031 2.588 2.588 0 0 0-.164.856c-.017.376-.021.5-.021 1.454s0 1.078.021 1.454a2.589 2.589 0 0 0 .164.856 1.8 1.8 0 0 0 1.031 1.031 2.586 2.586 0 0 0 .856.164c.376.017.5.021 1.454.021s1.078 0 1.454-.021a2.586 2.586 0 0 0 .856-.164 1.8 1.8 0 0 0 1.031-1.031 2.589 2.589 0 0 0 .164-.856c.017-.376.021-.5.021-1.454s0-1.078-.021-1.454a2.588 2.588 0 0 0-.164-.856 1.8 1.8 0 0 0-1.031-1.031 2.588 2.588 0 0 0-.856-.164c-.376-.017-.5-.021-1.454-.021"/><path class="d" d="M87.282 84.754a1.811 1.811 0 1 0 1.811 1.811 1.811 1.811 0 0 0-1.811-1.811m0 2.986a1.175 1.175 0 1 1 1.175-1.175 1.175 1.175 0 0 1-1.175 1.175M89.587 84.684a.423.423 0 1 1-.423-.423.423.423 0 0 1 .423.423"/><circle class="c" cx="8.895" cy="8.895" r="8.895" transform="translate(62.995 28)" style="filter:url(#e)"/><path class="d" d="M75.31 34.816a.935.935 0 0 0-.66-.66 22.309 22.309 0 0 0-2.918-.155 22.309 22.309 0 0 0-2.917.156.935.935 0 0 0-.66.66 10.427 10.427 0 0 0 0 3.595.935.935 0 0 0 .66.66 22.321 22.321 0 0 0 2.917.156 22.321 22.321 0 0 0 2.917-.156.935.935 0 0 0 .66-.66 9.716 9.716 0 0 0 .156-1.8 9.714 9.714 0 0 0-.156-1.8m-4.324 2.917v-2.24l1.94 1.12Z"/><circle class="c" cx="8.895" cy="8.895" r="8.895" transform="translate(55.998 49)" style="filter:url(#g)"/><path class="d" d="m66.472 58.426.248-1.746h-1.548v-1.133a.843.843 0 0 1 .913-.943h.706v-1.486A8.008 8.008 0 0 0 65.537 53a2.061 2.061 0 0 0-2.115 2.35v1.331H62v1.746h1.422v4.22a5.259 5.259 0 0 0 1.75 0v-4.22Z"/><g style="filter:url(#i)"><circle cx="8.897" cy="8.897" r="8.897" transform="translate(37.423 69.28)" style="fill:#f5f5f5"/></g><path class="d" d="M46.378 77.461c.092-.1.168-.208.262-.3a1.439 1.439 0 0 1 1.035-.408 2.391 2.391 0 0 1 .651.079 1.272 1.272 0 0 1 .9.95 3.981 3.981 0 0 1 .12 1.088v2.321c0 .072-.02.091-.091.091h-1.2c-.07 0-.085-.021-.085-.087v-2.208a1.983 1.983 0 0 0-.064-.548.616.616 0 0 0-.678-.48.741.741 0 0 0-.779.74 2.763 2.763 0 0 0-.021.345v2.148c0 .071-.018.092-.091.092q-.6-.005-1.2 0c-.064 0-.083-.017-.083-.082V76.95c0-.07.023-.086.089-.086h1.144c.07 0 .088.022.087.089v.508M44.194 79.081v2.1c0 .078-.019.1-.1.1h-1.2c-.064 0-.083-.016-.083-.081v-4.259c0-.059.014-.08.077-.079h1.213c.078 0 .088.029.088.1v2.121M44.304 75.458a.8.8 0 1 1-.794-.792.8.8 0 0 1 .794.792"/></svg>