<svg xmlns="http://www.w3.org/2000/svg" width="104" height="104"><path d="M69.719 57.1v4.783a2.937 2.937 0 0 1-2.931 2.941H24.931A2.938 2.938 0 0 1 22 61.883V57.1a7.459 7.459 0 0 0 0-14.376v-4.783A2.937 2.937 0 0 1 24.931 35h41.857a2.938 2.938 0 0 1 2.931 2.941v4.783a7.459 7.459 0 0 0 0 14.376Z" transform="translate(6 2.663)" style="fill:none;stroke:#000;stroke-width:2.5px;fill-rule:evenodd"/><path d="M58.487 37h2.651v30.487h-2.651Zm-19.22 12.593v-2.651h14.581v2.651Zm0 7.953v-2.651h8.616v2.651Z"/></svg>