<svg xmlns="http://www.w3.org/2000/svg" width="68" height="68"><path d="M53.4 17.215 35.239 9.337a4.274 4.274 0 0 0-3.326 0l-18.158 7.878A2.846 2.846 0 0 0 12 19.848v17.178a21.76 21.76 0 0 0 8.543 17.261c4.685 3.772 10.041 5.49 13.037 5.49s8.352-1.718 13.035-5.49a21.759 21.759 0 0 0 8.545-17.261V19.848a2.847 2.847 0 0 0-1.76-2.633Zm-1.414 19.811a18.681 18.681 0 0 1-7.36 14.79c-4.362 3.513-9 4.787-11.046 4.787s-6.68-1.275-11.045-4.788a18.682 18.682 0 0 1-7.361-14.79V20.058l18-7.807a1.136 1.136 0 0 1 .807 0l18.007 7.808Z"/><path d="M34.818 42.651a1.588 1.588 0 0 0-2.645 1.757l3.515 5.292a2.169 2.169 0 0 0 1.443.94 2.038 2.038 0 0 0 .34.028 2.118 2.118 0 0 0 1.288-.436l11.657-8.86a1.587 1.587 0 1 0-1.92-2.527l-10.769 8.18Z" transform="translate(-7.898 -10.203)" style="fill:#ff6809"/></svg>