<svg xmlns="http://www.w3.org/2000/svg" width="68" height="68"><defs><style>.f{fill:none}.d{fill:#ff6809;stroke:#fff;stroke-width:.25px}.e{stroke:none}</style></defs><path d="M69.126 56.826v4.723a2.9 2.9 0 0 1-2.895 2.9H24.895a2.9 2.9 0 0 1-2.895-2.9v-4.723a7.366 7.366 0 0 0 0-14.2V37.9a2.9 2.9 0 0 1 2.895-2.9h41.337a2.9 2.9 0 0 1 2.895 2.9v4.723a7.366 7.366 0 0 0 0 14.2Z" transform="translate(-12 -15.999)" style="stroke:#000;stroke-width:2.5px;fill-rule:evenodd;fill:none"/><path transform="translate(19 26.376)" style="fill:#fff" d="M0 0h19v15H0z"/><g class="d"><path class="e" d="M26.999 28.33h13.312v2.773H26.999z"/><path class="f" d="M27.124 28.455h13.062v2.523H27.124z"/></g><g class="d"><path class="e" d="M26.999 36.095h8.874v2.773h-8.874z"/><path class="f" d="M27.124 36.22h8.624v2.523h-8.624z"/></g></svg>