<svg xmlns="http://www.w3.org/2000/svg" width="104" height="104"><defs><clipPath id="a"><path style="fill:none" d="M0 0h24.135v20.409H0z"/></clipPath></defs><path d="M33.292 61.845a25.453 25.453 0 1 1 25.453-25.453 28.273 28.273 0 0 1-.585 5.632 3.561 3.561 0 0 1 .878-.073 15.818 15.818 0 0 1 4.535.658 28.924 28.924 0 0 0 .585-6.217 30.829 30.829 0 1 0-30.866 30.793 29.945 29.945 0 0 0 11.776-2.34 14.884 14.884 0 0 1-1.609-5.193 24.6 24.6 0 0 1-10.167 2.193Z" transform="translate(18 15.4)" style="stroke:#f7f7f7;stroke-width:3px"/><path d="M73.696 60.263a9.794 9.794 0 1 0 9.739 9.794 9.7 9.7 0 0 0-9.739-9.794Zm4.261 7.913-4.482 5.312a.945.945 0 0 1-1.439 0l-2.545-3.043a.981.981 0 0 1 1.494-1.273l1.826 2.158 3.707-4.427a1.02 1.02 0 0 1 1.383-.111 1.087 1.087 0 0 1 .056 1.384Z"/><g style="clip-path:url(#a)" transform="translate(38.854 41.999)"><path d="M6.077 0a1.025 1.025 0 0 0-1.025 1.025v10.2a1.5 1.5 0 1 1-3 0v-.615a1.025 1.025 0 0 0-2.05 0v.615a3.551 3.551 0 1 0 7.1 0v-10.2A1.025 1.025 0 0 0 6.077 0M16.617 9.946a1.025 1.025 0 0 0-1.025 1.025v.251a1.5 1.5 0 0 1-1.465 1.537h-1.65a1.5 1.5 0 0 1-1.5-1.5V1.025a1.025 1.025 0 0 0-2.05 0v10.2a3.556 3.556 0 0 0 3.525 3.587h1.665a3.556 3.556 0 0 0 3.525-3.586v-.276a1.025 1.025 0 0 0-1.025-1M23.11 8.865a1.025 1.025 0 0 0-1.025 1.025v2.87H20.43a1.025 1.025 0 1 0 0 2.05h2.68a1.025 1.025 0 0 0 1.02-1.026V9.89a1.025 1.025 0 0 0-1.02-1.025M9.951 18.36h2.219v2.05H9.951zM13.886 18.36h2.219v2.05h-2.219z"/></g></svg>