<svg xmlns="http://www.w3.org/2000/svg" width="24" height="24"><path d="m22.533 24-8.767-8.767a7.35 7.35 0 0 1-2.332 1.35 8.245 8.245 0 0 1-2.835.483 8.3 8.3 0 0 1-6.1-2.5 8.226 8.226 0 0 1-2.5-6.033 8.221 8.221 0 0 1 2.5-6.033A8.241 8.241 0 0 1 8.549 0a8.186 8.186 0 0 1 6.033 2.5 8.255 8.255 0 0 1 2.483 6.038 8.3 8.3 0 0 1-.467 2.762 8.459 8.459 0 0 1-1.4 2.5l8.8 8.733ZM8.566 15.067a6.234 6.234 0 0 0 4.6-1.917 6.328 6.328 0 0 0 1.9-4.617 6.328 6.328 0 0 0-1.9-4.617 6.234 6.234 0 0 0-4.6-1.917 6.33 6.33 0 0 0-4.651 1.917A6.3 6.3 0 0 0 2 8.533a6.3 6.3 0 0 0 1.915 4.617 6.33 6.33 0 0 0 4.652 1.917Z"/></svg>