<svg xmlns="http://www.w3.org/2000/svg" width="104" height="104" viewBox="0 0 104 104"><defs><style>.a {
  fill: #fff;
  opacity: 0;
}

.b {
  stroke: #000;
}

</style></defs><g transform="translate(-182 -2864.25)"><rect class="a" width="104" height="104" transform="translate(182 2864.25)"></rect><g transform="translate(210.5 2897.25)"><path class="b" d="M11.494,16.239a.654.654,0,0,0-.652.652V29.974a.652.652,0,1,0,1.3,0V16.891a.654.654,0,0,0-.652-.652Z" transform="translate(-0.447 3.287)"></path><path class="b" d="M53.9,15.273a.654.654,0,0,0,.652-.652V9.4A.654.654,0,0,0,53.9,8.75H22.616a.652.652,0,0,0-.652.652v5.215a.652.652,0,0,0,.652.652,4.563,4.563,0,1,1,.1,9.125H7.507a.654.654,0,0,0-.652.652V30.26a.654.654,0,0,0,.652.652,4.563,4.563,0,1,1,0,9.125.654.654,0,0,0-.652.652V45.9a.654.654,0,0,0,.652.652H38.794a.652.652,0,0,0,.652-.652V40.689a.652.652,0,0,0-.652-.652,4.563,4.563,0,1,1,0-9.125.652.652,0,0,0,.652-.652V25.045a.652.652,0,0,0-.652-.652H33.658v-11.1a.652.652,0,0,0-1.3,0v11.1H26.266a5.838,5.838,0,0,0-3-10.382V10.059H53.249v3.947a5.866,5.866,0,0,0,0,11.66v3.947H44.024a.652.652,0,1,0,0,1.3H53.9a.647.647,0,0,0,.459-.19.657.657,0,0,0,.183-.467V25.045a.654.654,0,0,0-.652-.652,4.563,4.563,0,0,1,0-9.125ZM38.155,25.7V29.65a5.866,5.866,0,0,0,0,11.66v3.947h-30V41.3a5.866,5.866,0,0,0,0-11.66V25.692H22.7Z" transform="translate(-6.855 -8.75)"></path></g></g></svg>