<svg xmlns="http://www.w3.org/2000/svg" width="104" height="104" viewBox="0 0 104 104"><defs><style>.a {
  fill: #fff;
  opacity: 0;
}

.b {
  stroke: #000;
  stroke-width: .8px;
}

</style></defs><g transform="translate(-511 -3248.25)"><rect class="a" width="104" height="104" transform="translate(511 3248.25)"></rect><g transform="translate(-466.252 -5074.722)"><g transform="translate(1005.253 8349.972)"><g transform="translate(0)"><path class="b" d="M19.48,42.7H2.851A15.233,15.233,0,0,1,18.038,28.3a15.008,15.008,0,0,1,6.578,1.5.8.8,0,1,0,.693-1.449A16.816,16.816,0,0,0,1.22,43.5a.807.807,0,0,0,.8.8H19.48a.8.8,0,1,0,0-1.6Z" transform="translate(-1.22 -5.665)"></path><path class="b" d="M19.6,19.441A9.721,9.721,0,1,0,9.88,9.721,9.736,9.736,0,0,0,19.6,19.441Zm0-17.834a8.114,8.114,0,1,1-8.114,8.114A8.122,8.122,0,0,1,19.6,1.607Z" transform="translate(-3.058)"></path><path class="b" d="M54.76,34.43h-4.01V28.813a.807.807,0,0,0-.8-.8H45.67a.807.807,0,0,0-.8.8V34.43H29.623a.807.807,0,0,0-.8.8V55.557a.807.807,0,0,0,.8.8H54.76a.807.807,0,0,0,.8-.8V35.234A.807.807,0,0,0,54.76,34.43Zm-8.287-4.813h2.678V39.779H46.473Zm-1.607,6.42v4.545a.807.807,0,0,0,.8.8h4.277a.807.807,0,0,0,.8-.8V36.037h3.206v12.84H30.419V36.037ZM30.419,54.754V50.476H53.957v4.277Z" transform="translate(-7.078 -5.946)"></path><path class="b" d="M43.2,44.557h.536a.8.8,0,0,0,0-1.607H43.2a.8.8,0,1,0,0,1.607Z" transform="translate(-9.961 -9.117)"></path><path class="b" d="M43.2,49.307h.536a.8.8,0,0,0,0-1.607H43.2a.8.8,0,1,0,0,1.607Z" transform="translate(-9.961 -10.125)"></path><path class="b" d="M35.733,44.557h.536a.8.8,0,0,0,0-1.607h-.536a.8.8,0,0,0,0,1.607Z" transform="translate(-8.375 -9.117)"></path><path class="b" d="M35.733,49.307h.536a.8.8,0,0,0,0-1.607h-.536a.8.8,0,0,0,0,1.607Z" transform="translate(-8.375 -10.125)"></path></g></g></g></g></svg>