<svg xmlns="http://www.w3.org/2000/svg" xmlns:xlink="http://www.w3.org/1999/xlink" width="104" height="104" viewBox="0 0 104 104"><defs><style>.a {
  fill: none;
}

.b {
  fill: #fff;
  opacity: 0;
}

.c {
  stroke: #f7f7f7;
  stroke-width: 3px;
}

.d {
  clip-path: url("#a");
}

</style><clipPath id="a"><rect class="a" width="24.135" height="20.409"></rect></clipPath></defs><g transform="translate(-1126 -2864.25)"><rect class="b" width="104" height="104" transform="translate(1126 2864.25)"></rect><g transform="translate(1146.5 2885.25)"><g transform="translate(0 0)"><path class="c" d="M33.292,61.845A25.453,25.453,0,1,1,58.745,36.392a28.273,28.273,0,0,1-.585,5.632,3.561,3.561,0,0,1,.878-.073,15.818,15.818,0,0,1,4.535.658,28.924,28.924,0,0,0,.585-6.217A30.829,30.829,0,1,0,33.292,67.185a29.945,29.945,0,0,0,11.776-2.34,14.884,14.884,0,0,1-1.609-5.193A24.6,24.6,0,0,1,33.292,61.845Z" transform="translate(-2.5 -5.6)"></path><path d="M71.849,59a9.794,9.794,0,1,0,9.739,9.794A9.7,9.7,0,0,0,71.849,59Zm4.261,7.913-4.482,5.312a.945.945,0,0,1-1.439,0l-2.545-3.043a.981.981,0,0,1,1.494-1.273l1.826,2.158,3.707-4.427a1.02,1.02,0,0,1,1.383-.111A1.087,1.087,0,0,1,76.11,66.913Z" transform="translate(-18.653 -19.737)"></path><g transform="translate(18.354 20.999)"><g class="d"><path d="M6.077,0A1.025,1.025,0,0,0,5.052,1.025v10.2a1.5,1.5,0,1,1-3,0v-.615a1.025,1.025,0,0,0-2.05,0v.615a3.551,3.551,0,1,0,7.1,0V1.025A1.025,1.025,0,0,0,6.077,0"></path><path d="M25.111,9.946a1.025,1.025,0,0,0-1.025,1.025v.251a1.5,1.5,0,0,1-1.465,1.537h-1.65a1.5,1.5,0,0,1-1.5-1.5c0-.012,0-.024,0-.036V1.025a1.025,1.025,0,0,0-2.05,0v10.2a3.556,3.556,0,0,0,3.525,3.587h1.665a3.556,3.556,0,0,0,3.525-3.586h0V10.95a1.025,1.025,0,0,0-1.025-1" transform="translate(-8.494)"></path><path d="M41.58,17.3a1.025,1.025,0,0,0-1.025,1.025v2.87H38.9a1.025,1.025,0,1,0,0,2.05H41.58A1.025,1.025,0,0,0,42.6,22.219V18.325A1.025,1.025,0,0,0,41.58,17.3" transform="translate(-18.47 -8.435)"></path><rect width="2.219" height="2.05" transform="translate(9.951 18.36)"></rect><rect width="2.219" height="2.05" transform="translate(13.886 18.36)"></rect></g></g></g></g></g></svg>