<svg xmlns="http://www.w3.org/2000/svg" width="24" height="24" viewBox="0 0 24 24">
  <g id="Wishlist" transform="translate(2805 -6535)">
    <circle id="Ellipse_119" data-name="Ellipse 119" cx="12" cy="12" r="12" transform="translate(-2805 6535)" opacity="0.2"></circle>
    <path id="favorite_FILL0_wght400_GRAD0_opsz48" d="M88-839.34l-.82-.74q-2.115-1.942-3.5-3.351a24.518,24.518,0,0,1-2.2-2.519,8.323,8.323,0,0,1-1.15-2.01,5.252,5.252,0,0,1-.33-1.82,4.084,4.084,0,0,1,1.21-3.012A4.064,4.064,0,0,1,84.2-854a4.266,4.266,0,0,1,2.11.54A5.125,5.125,0,0,1,88-851.9a5.831,5.831,0,0,1,1.78-1.59A4.171,4.171,0,0,1,91.8-854a4.064,4.064,0,0,1,2.99,1.208A4.084,4.084,0,0,1,96-849.78a5.252,5.252,0,0,1-.33,1.82,8.323,8.323,0,0,1-1.15,2.01,24.519,24.519,0,0,1-2.2,2.519q-1.382,1.409-3.5,3.351Zm0-1.58q2.025-1.86,3.332-3.19a26.6,26.6,0,0,0,2.078-2.33,7.69,7.69,0,0,0,1.08-1.783,4.2,4.2,0,0,0,.31-1.554,2.961,2.961,0,0,0-.84-2.173,2.9,2.9,0,0,0-2.155-.85,3.2,3.2,0,0,0-1.908.63,4.483,4.483,0,0,0-1.417,1.77H87.5a4.434,4.434,0,0,0-1.4-1.76,3.169,3.169,0,0,0-1.908-.64,2.9,2.9,0,0,0-2.156.85,2.966,2.966,0,0,0-.84,2.176,4.258,4.258,0,0,0,.31,1.564,7.789,7.789,0,0,0,1.08,1.8,24,24,0,0,0,2.09,2.33Q86-842.76,88-840.92ZM88-846.86Z" transform="translate(-2881 7393.67)" fill="#fff"></path>
  </g>
</svg>
